<svg>

<symbol id="nav-cart" width="16" height="19" viewBox="0 0 16 19" fill="none" xmlns="http://www.w3.org/2000/svg">
<path d="M14.25 4.75H11.4V3.8C11.4 2.79218 10.9996 1.82563 10.287 1.11299C9.57437 0.400356 8.60782 0 7.6 0C6.59218 0 5.62563 0.400356 4.91299 1.11299C4.20036 1.82563 3.8 2.79218 3.8 3.8V4.75H0.95C0.698044 4.75 0.456408 4.85009 0.278249 5.02825C0.100089 5.20641 0 5.44804 0 5.7V16.15C0 16.9059 0.300267 17.6308 0.834746 18.1653C1.36922 18.6997 2.09413 19 2.85 19H12.35C13.1059 19 13.8308 18.6997 14.3653 18.1653C14.8997 17.6308 15.2 16.9059 15.2 16.15V5.7C15.2 5.44804 15.0999 5.20641 14.9218 5.02825C14.7436 4.85009 14.502 4.75 14.25 4.75ZM5.7 3.8C5.7 3.29609 5.90018 2.81282 6.2565 2.4565C6.61282 2.10018 7.09609 1.9 7.6 1.9C8.10391 1.9 8.58718 2.10018 8.9435 2.4565C9.29982 2.81282 9.5 3.29609 9.5 3.8V4.75H5.7V3.8ZM13.3 16.15C13.3 16.402 13.1999 16.6436 13.0218 16.8218C12.8436 16.9999 12.602 17.1 12.35 17.1H2.85C2.59804 17.1 2.35641 16.9999 2.17825 16.8218C2.00009 16.6436 1.9 16.402 1.9 16.15V6.65H3.8V7.6C3.8 7.85196 3.90009 8.09359 4.07825 8.27175C4.25641 8.44991 4.49804 8.55 4.75 8.55C5.00196 8.55 5.24359 8.44991 5.42175 8.27175C5.59991 8.09359 5.7 7.85196 5.7 7.6V6.65H9.5V7.6C9.5 7.85196 9.60009 8.09359 9.77825 8.27175C9.95641 8.44991 10.198 8.55 10.45 8.55C10.702 8.55 10.9436 8.44991 11.1218 8.27175C11.2999 8.09359 11.4 7.85196 11.4 7.6V6.65H13.3V16.15Z" fill="white" fill-opacity="0.59"/>
</symbol>

<symbol id="location" width="21" height="24" viewBox="0 0 21 24" fill="none" xmlns="http://www.w3.org/2000/svg">
<path d="M20.3454 8.98782C20.1852 7.32068 19.596 5.72343 18.6352 4.35161C17.6744 2.9798 16.3747 1.88016 14.8628 1.15979C13.3508 0.439417 11.678 0.122856 10.0074 0.240933C8.33672 0.35901 6.72512 0.9077 5.32949 1.83357C4.13049 2.63531 3.12394 3.69265 2.38215 4.92963C1.64036 6.16661 1.18173 7.55252 1.03923 8.98782C0.899431 10.4137 1.07879 11.8528 1.56429 13.2008C2.0498 14.5488 2.82927 15.7717 3.84615 16.781L9.8936 22.8399C9.99967 22.9468 10.1259 23.0317 10.2649 23.0896C10.404 23.1476 10.5531 23.1774 10.7037 23.1774C10.8544 23.1774 11.0035 23.1476 11.1425 23.0896C11.2816 23.0317 11.4078 22.9468 11.5139 22.8399L17.5385 16.781C18.5554 15.7717 19.3348 14.5488 19.8203 13.2008C20.3058 11.8528 20.4852 10.4137 20.3454 8.98782V8.98782ZM15.941 15.1722L10.6923 20.4209L5.44359 15.1722C4.67008 14.3986 4.07756 13.4633 3.70862 12.4334C3.33969 11.4036 3.20351 10.3048 3.30987 9.21602C3.41692 8.11048 3.76829 7.04255 4.33859 6.08943C4.90888 5.13631 5.68384 4.32182 6.60744 3.70486C7.81801 2.9007 9.239 2.47175 10.6923 2.47175C12.1456 2.47175 13.5666 2.9007 14.7772 3.70486C15.698 4.31944 16.4712 5.13032 17.0414 6.07927C17.6116 7.02821 17.9645 8.09165 18.0748 9.1932C18.1846 10.2857 18.0501 11.3889 17.6811 12.4229C17.3121 13.457 16.7177 14.3961 15.941 15.1722V15.1722ZM10.6923 4.84589C9.67678 4.84589 8.68406 5.14703 7.83967 5.71123C6.99529 6.27543 6.33717 7.07734 5.94854 8.01557C5.55992 8.9538 5.45823 9.98621 5.65635 10.9822C5.85448 11.9782 6.3435 12.8931 7.06159 13.6112C7.77968 14.3293 8.69458 14.8184 9.6906 15.0165C10.6866 15.2146 11.719 15.1129 12.6573 14.7243C13.5955 14.3357 14.3974 13.6775 14.9616 12.8332C15.5258 11.9888 15.8269 10.996 15.8269 9.98051C15.8239 8.61965 15.282 7.31539 14.3197 6.35311C13.3574 5.39084 12.0532 4.8489 10.6923 4.84589V4.84589ZM10.6923 12.8331C10.1281 12.8331 9.57662 12.6658 9.10752 12.3523C8.63841 12.0389 8.27279 11.5934 8.05689 11.0721C7.84098 10.5509 7.78449 9.97734 7.89456 9.424C8.00463 8.87066 8.27631 8.36238 8.67525 7.96344C9.07419 7.5645 9.58246 7.29282 10.1358 7.18275C10.6892 7.07269 11.2627 7.12918 11.7839 7.34508C12.3052 7.56098 12.7507 7.9266 13.0641 8.39571C13.3776 8.86481 13.5449 9.41632 13.5449 9.98051C13.5449 10.7371 13.2443 11.4626 12.7094 11.9976C12.1744 12.5325 11.4489 12.8331 10.6923 12.8331V12.8331Z" fill="#D2973D"/>
</symbol>
<symbol id="phone" width="23" height="23" viewBox="0 0 23 23" fill="none" xmlns="http://www.w3.org/2000/svg">
<path d="M20.1815 12.8332C19.9304 12.8332 19.668 12.7533 19.417 12.6962C18.9086 12.5842 18.4091 12.4355 17.9222 12.2512C17.3929 12.0587 16.811 12.0687 16.2886 12.2793C15.7662 12.49 15.3402 12.8864 15.0925 13.3923L14.8415 13.9057C13.7301 13.2875 12.7089 12.5197 11.8063 11.6237C10.9104 10.7211 10.1425 9.6999 9.52428 8.58855L10.0035 8.26906C10.5094 8.02136 10.9058 7.59532 11.1165 7.07291C11.3271 6.5505 11.3371 5.96865 11.1445 5.43931C10.9634 4.95143 10.8147 4.45209 10.6995 3.94457C10.6425 3.69354 10.5968 3.4311 10.5626 3.16867C10.4241 2.36495 10.0031 1.63712 9.37551 1.11623C8.74795 0.595351 7.95502 0.315654 7.13953 0.32751H3.71645C3.2247 0.322893 2.73774 0.424285 2.2887 0.624783C1.83966 0.825281 1.43909 1.12018 1.11426 1.4894C0.789432 1.85862 0.547973 2.29349 0.406318 2.76442C0.264663 3.23534 0.22614 3.73126 0.29337 4.21841C0.901239 8.99861 3.08436 13.4401 6.49788 16.8412C9.9114 20.2423 14.3608 22.4092 19.1431 22.9997H19.5767C20.4181 23.001 21.2305 22.6922 21.8588 22.1325C22.2198 21.8097 22.5081 21.4139 22.7048 20.9713C22.9015 20.5288 23.0021 20.0495 22.9998 19.5652V16.1421C22.9858 15.3496 22.6972 14.5864 22.1832 13.9829C21.6692 13.3795 20.9617 12.9731 20.1815 12.8332V12.8332ZM20.752 19.6793C20.7518 19.8413 20.7171 20.0014 20.6502 20.149C20.5833 20.2966 20.4858 20.4282 20.364 20.5351C20.2365 20.6452 20.0875 20.7274 19.9263 20.7765C19.7652 20.8257 19.5956 20.8406 19.4284 20.8204C15.1551 20.2724 11.1859 18.3175 8.14674 15.2639C5.10759 12.2103 3.17151 8.23179 2.64389 3.95598C2.62573 3.78884 2.64164 3.61975 2.69067 3.45894C2.7397 3.29812 2.82082 3.14891 2.92914 3.02033C3.03607 2.89862 3.16769 2.80108 3.31524 2.73418C3.4628 2.66729 3.6229 2.63259 3.78491 2.63239H7.20799C7.47334 2.62648 7.73244 2.71326 7.9407 2.87779C8.14896 3.04231 8.29335 3.27429 8.34902 3.5338C8.39466 3.84568 8.45171 4.15375 8.52018 4.45803C8.65199 5.05951 8.82741 5.65061 9.04505 6.22662L7.44761 6.96829C7.31103 7.03096 7.18817 7.11998 7.08608 7.23026C6.984 7.34054 6.90471 7.4699 6.85276 7.61091C6.80081 7.75192 6.77722 7.9018 6.78336 8.05195C6.78949 8.2021 6.82523 8.34955 6.88851 8.48585C8.53067 12.0034 11.3582 14.8309 14.8757 16.473C15.1535 16.5872 15.4651 16.5872 15.7429 16.473C15.8852 16.4221 16.016 16.3435 16.1276 16.2416C16.2392 16.1398 16.3296 16.0168 16.3933 15.8797L17.1007 14.2823C17.6906 14.4932 18.2926 14.6685 18.9035 14.8071C19.2078 14.8756 19.5159 14.9327 19.8278 14.9783C20.0873 15.034 20.3192 15.1784 20.4838 15.3866C20.6483 15.5949 20.7351 15.854 20.7292 16.1193L20.752 19.6793Z" fill="#D2973D"/>
</symbol>

<symbol id="calendar" width="24" height="26" viewBox="0 0 24 26" fill="none" xmlns="http://www.w3.org/2000/svg">
<path d="M11.6925 20.6796C11.9182 20.6796 12.1388 20.6127 12.3264 20.4873C12.5141 20.3619 12.6603 20.1837 12.7467 19.9752C12.833 19.7667 12.8556 19.5373 12.8116 19.316C12.7676 19.0946 12.6589 18.8913 12.4993 18.7317C12.3398 18.5722 12.1364 18.4635 11.9151 18.4195C11.6938 18.3754 11.4643 18.398 11.2558 18.4844C11.0474 18.5708 10.8691 18.717 10.7438 18.9047C10.6184 19.0923 10.5515 19.3129 10.5515 19.5386C10.5515 19.8412 10.6717 20.1314 10.8857 20.3454C11.0997 20.5594 11.3899 20.6796 11.6925 20.6796ZM17.3976 20.6796C17.6233 20.6796 17.8439 20.6127 18.0316 20.4873C18.2192 20.3619 18.3654 20.1837 18.4518 19.9752C18.5382 19.7667 18.5608 19.5373 18.5167 19.316C18.4727 19.0946 18.364 18.8913 18.2045 18.7317C18.0449 18.5722 17.8416 18.4635 17.6202 18.4195C17.3989 18.3754 17.1695 18.398 16.961 18.4844C16.7525 18.5708 16.5743 18.717 16.4489 18.9047C16.3235 19.0923 16.2566 19.3129 16.2566 19.5386C16.2566 19.8412 16.3768 20.1314 16.5908 20.3454C16.8048 20.5594 17.095 20.6796 17.3976 20.6796ZM17.3976 16.1155C17.6233 16.1155 17.8439 16.0486 18.0316 15.9232C18.2192 15.7978 18.3654 15.6196 18.4518 15.4111C18.5382 15.2026 18.5608 14.9732 18.5167 14.7519C18.4727 14.5305 18.364 14.3272 18.2045 14.1676C18.0449 14.0081 17.8416 13.8994 17.6202 13.8554C17.3989 13.8113 17.1695 13.8339 16.961 13.9203C16.7525 14.0067 16.5743 14.1529 16.4489 14.3405C16.3235 14.5282 16.2566 14.7488 16.2566 14.9745C16.2566 15.2771 16.3768 15.5673 16.5908 15.7813C16.8048 15.9953 17.095 16.1155 17.3976 16.1155ZM11.6925 16.1155C11.9182 16.1155 12.1388 16.0486 12.3264 15.9232C12.5141 15.7978 12.6603 15.6196 12.7467 15.4111C12.833 15.2026 12.8556 14.9732 12.8116 14.7519C12.7676 14.5305 12.6589 14.3272 12.4993 14.1676C12.3398 14.0081 12.1364 13.8994 11.9151 13.8554C11.6938 13.8113 11.4643 13.8339 11.2558 13.9203C11.0474 14.0067 10.8691 14.1529 10.7438 14.3405C10.6184 14.5282 10.5515 14.7488 10.5515 14.9745C10.5515 15.2771 10.6717 15.5673 10.8857 15.7813C11.0997 15.9953 11.3899 16.1155 11.6925 16.1155ZM19.6797 2.42317H18.5387V1.28214C18.5387 0.979521 18.4184 0.689296 18.2045 0.475312C17.9905 0.261328 17.7003 0.141113 17.3976 0.141113C17.095 0.141113 16.8048 0.261328 16.5908 0.475312C16.3768 0.689296 16.2566 0.979521 16.2566 1.28214V2.42317H7.12839V1.28214C7.12839 0.979521 7.00817 0.689296 6.79419 0.475312C6.58021 0.261328 6.28998 0.141113 5.98736 0.141113C5.68474 0.141113 5.39452 0.261328 5.18053 0.475312C4.96655 0.689296 4.84634 0.979521 4.84634 1.28214V2.42317H3.70531C2.79745 2.42317 1.92678 2.78381 1.28482 3.42577C0.642872 4.06772 0.282227 4.93839 0.282227 5.84625V21.8206C0.282227 22.7285 0.642872 23.5992 1.28482 24.2411C1.92678 24.8831 2.79745 25.2437 3.70531 25.2437H19.6797C20.5875 25.2437 21.4582 24.8831 22.1002 24.2411C22.7421 23.5992 23.1028 22.7285 23.1028 21.8206V5.84625C23.1028 4.93839 22.7421 4.06772 22.1002 3.42577C21.4582 2.78381 20.5875 2.42317 19.6797 2.42317ZM20.8207 21.8206C20.8207 22.1232 20.7005 22.4135 20.4865 22.6275C20.2725 22.8414 19.9823 22.9617 19.6797 22.9617H3.70531C3.40269 22.9617 3.11246 22.8414 2.89848 22.6275C2.6845 22.4135 2.56428 22.1232 2.56428 21.8206V11.5514H20.8207V21.8206ZM20.8207 9.26933H2.56428V5.84625C2.56428 5.54363 2.6845 5.25341 2.89848 5.03942C3.11246 4.82544 3.40269 4.70522 3.70531 4.70522H4.84634V5.84625C4.84634 6.14887 4.96655 6.43909 5.18053 6.65308C5.39452 6.86706 5.68474 6.98728 5.98736 6.98728C6.28998 6.98728 6.58021 6.86706 6.79419 6.65308C7.00817 6.43909 7.12839 6.14887 7.12839 5.84625V4.70522H16.2566V5.84625C16.2566 6.14887 16.3768 6.43909 16.5908 6.65308C16.8048 6.86706 17.095 6.98728 17.3976 6.98728C17.7003 6.98728 17.9905 6.86706 18.2045 6.65308C18.4184 6.43909 18.5387 6.14887 18.5387 5.84625V4.70522H19.6797C19.9823 4.70522 20.2725 4.82544 20.4865 5.03942C20.7005 5.25341 20.8207 5.54363 20.8207 5.84625V9.26933ZM5.98736 16.1155C6.21304 16.1155 6.43364 16.0486 6.62128 15.9232C6.80892 15.7978 6.95517 15.6196 7.04153 15.4111C7.1279 15.2026 7.15049 14.9732 7.10647 14.7519C7.06244 14.5305 6.95377 14.3272 6.79419 14.1676C6.63461 14.0081 6.4313 13.8994 6.20997 13.8554C5.98863 13.8113 5.75921 13.8339 5.55071 13.9203C5.34222 14.0067 5.16401 14.1529 5.03863 14.3405C4.91326 14.5282 4.84634 14.7488 4.84634 14.9745C4.84634 15.2771 4.96655 15.5673 5.18053 15.7813C5.39452 15.9953 5.68474 16.1155 5.98736 16.1155ZM5.98736 20.6796C6.21304 20.6796 6.43364 20.6127 6.62128 20.4873C6.80892 20.3619 6.95517 20.1837 7.04153 19.9752C7.1279 19.7667 7.15049 19.5373 7.10647 19.316C7.06244 19.0946 6.95377 18.8913 6.79419 18.7317C6.63461 18.5722 6.4313 18.4635 6.20997 18.4195C5.98863 18.3754 5.75921 18.398 5.55071 18.4844C5.34222 18.5708 5.16401 18.717 5.03863 18.9047C4.91326 19.0923 4.84634 19.3129 4.84634 19.5386C4.84634 19.8412 4.96655 20.1314 5.18053 20.3454C5.39452 20.5594 5.68474 20.6796 5.98736 20.6796Z" fill="#D2973D"/>
</symbol>
<symbol id="cart" width="12" height="15" viewBox="0 0 12 15"  xmlns="http://www.w3.org/2000/svg">
<path d="M10.6875 3.5625H8.55V2.85C8.55 2.09413 8.24973 1.36922 7.71525 0.834746C7.18078 0.300267 6.45587 0 5.7 0C4.94413 0 4.21922 0.300267 3.68475 0.834746C3.15027 1.36922 2.85 2.09413 2.85 2.85V3.5625H0.7125C0.523533 3.5625 0.342306 3.63757 0.208687 3.77119C0.0750669 3.90481 0 4.08603 0 4.275V12.1125C0 12.6794 0.2252 13.2231 0.626059 13.6239C1.02692 14.0248 1.5706 14.25 2.1375 14.25H9.2625C9.8294 14.25 10.3731 14.0248 10.7739 13.6239C11.1748 13.2231 11.4 12.6794 11.4 12.1125V4.275C11.4 4.08603 11.3249 3.90481 11.1913 3.77119C11.0577 3.63757 10.8765 3.5625 10.6875 3.5625ZM4.275 2.85C4.275 2.47207 4.42513 2.10961 4.69237 1.84237C4.95961 1.57513 5.32207 1.425 5.7 1.425C6.07793 1.425 6.44039 1.57513 6.70763 1.84237C6.97487 2.10961 7.125 2.47207 7.125 2.85V3.5625H4.275V2.85ZM9.975 12.1125C9.975 12.3015 9.89993 12.4827 9.76631 12.6163C9.63269 12.7499 9.45147 12.825 9.2625 12.825H2.1375C1.94853 12.825 1.76731 12.7499 1.63369 12.6163C1.50007 12.4827 1.425 12.3015 1.425 12.1125V4.9875H2.85V5.7C2.85 5.88897 2.92507 6.07019 3.05869 6.20381C3.19231 6.33743 3.37353 6.4125 3.5625 6.4125C3.75147 6.4125 3.93269 6.33743 4.06631 6.20381C4.19993 6.07019 4.275 5.88897 4.275 5.7V4.9875H7.125V5.7C7.125 5.88897 7.20007 6.07019 7.33369 6.20381C7.46731 6.33743 7.64853 6.4125 7.8375 6.4125C8.02647 6.4125 8.20769 6.33743 8.34131 6.20381C8.47493 6.07019 8.55 5.88897 8.55 5.7V4.9875H9.975V12.1125Z" />
</symbol>

<symbol id="delete" width="30" height="30" viewBox="0 0 30 30" fill="none" xmlns="http://www.w3.org/2000/svg">
<rect x="0.5" y="0.5" width="29" height="29" rx="2.5" stroke="#D33041"/>
<path d="M9.66659 12.3333H20.3333V21C20.3333 21.1768 20.263 21.3464 20.138 21.4714C20.013 21.5964 19.8434 21.6667 19.6666 21.6667H10.3333C10.1564 21.6667 9.98687 21.5964 9.86185 21.4714C9.73682 21.3464 9.66659 21.1768 9.66659 21V12.3333ZM10.9999 13.6667V20.3333H18.9999V13.6667H10.9999ZM12.9999 15H14.3333V19H12.9999V15ZM15.6666 15H16.9999V19H15.6666V15ZM11.6666 10.3333V9.00001C11.6666 8.8232 11.7368 8.65363 11.8618 8.52861C11.9869 8.40358 12.1564 8.33334 12.3333 8.33334H17.6666C17.8434 8.33334 18.013 8.40358 18.138 8.52861C18.263 8.65363 18.3333 8.8232 18.3333 9.00001V10.3333H21.6666V11.6667H8.33325V10.3333H11.6666ZM12.9999 9.66668V10.3333H16.9999V9.66668H12.9999Z" fill="#D33041"/>
</symbol>
<symbol id="search" width="19" height="19" viewBox="0 0 19 19" fill="none" xmlns="http://www.w3.org/2000/svg">
<path d="M8.38703 0.706543C12.6264 0.706543 16.067 4.14718 16.067 8.38654C16.067 12.6259 12.6264 16.0665 8.38703 16.0665C4.14767 16.0665 0.707031 12.6259 0.707031 8.38654C0.707031 4.14718 4.14767 0.706543 8.38703 0.706543ZM8.38703 14.3599C11.6869 14.3599 14.3604 11.6864 14.3604 8.38654C14.3604 5.08585 11.6869 2.41321 8.38703 2.41321C5.08634 2.41321 2.4137 5.08585 2.4137 8.38654C2.4137 11.6864 5.08634 14.3599 8.38703 14.3599ZM15.6276 14.4205L18.0416 16.8337L16.8342 18.0412L14.4209 15.6271L15.6276 14.4205Z" fill="white" fill-opacity="0.59"/>
</symbol>
<symbol id="right-arrow" width="10" height="15" viewBox="0 0 10 15" fill="none" xmlns="http://www.w3.org/2000/svg">
<path d="M6.4858 7.14099L0.936383 1.59157L2.52161 0.00634734L9.65625 7.14099L2.52161 14.2756L0.936382 12.6904L6.4858 7.14099Z" fill="white"/>
</symbol>

<symbol id="left-arrow" width="10" height="15" viewBox="0 0 10 15" fill="none" xmlns="http://www.w3.org/2000/svg">
<path d="M3.5142 7.85901L9.06362 13.4084L7.47839 14.9937L0.343751 7.85901L7.47839 0.724371L9.06362 2.3096L3.5142 7.85901Z" fill="white"/>
</symbol>
<symbol id="reorder" width="27" height="29" viewBox="0 0 27 29" fill="none" xmlns="http://www.w3.org/2000/svg">
<path d="M4.5 18.7082V4.67735H2.25V2.33887H5.625C5.92337 2.33887 6.20952 2.46205 6.4205 2.68133C6.63147 2.90061 6.75 3.19801 6.75 3.50811V17.539H20.7428L22.9928 8.18507H9V5.84659H24.435C24.606 5.8466 24.7748 5.88712 24.9284 5.96508C25.0821 6.04304 25.2167 6.15638 25.3219 6.2965C25.4271 6.43662 25.5002 6.59982 25.5356 6.7737C25.571 6.94757 25.5678 7.12755 25.5263 7.29996L22.7138 18.9924C22.6528 19.2452 22.5123 19.4697 22.3146 19.63C22.1169 19.7904 21.8733 19.8775 21.6225 19.8775H5.625C5.32663 19.8775 5.04048 19.7543 4.82951 19.535C4.61853 19.3158 4.5 19.0184 4.5 18.7082ZM6.75 26.8929C6.15326 26.8929 5.58097 26.6466 5.15901 26.208C4.73705 25.7695 4.5 25.1747 4.5 24.5545C4.5 23.9343 4.73705 23.3395 5.15901 22.9009C5.58097 22.4623 6.15326 22.216 6.75 22.216C7.34674 22.216 7.91904 22.4623 8.34099 22.9009C8.76295 23.3395 9 23.9343 9 24.5545C9 25.1747 8.76295 25.7695 8.34099 26.208C7.91904 26.6466 7.34674 26.8929 6.75 26.8929ZM20.25 26.8929C19.6533 26.8929 19.081 26.6466 18.659 26.208C18.2371 25.7695 18 25.1747 18 24.5545C18 23.9343 18.2371 23.3395 18.659 22.9009C19.081 22.4623 19.6533 22.216 20.25 22.216C20.8467 22.216 21.419 22.4623 21.841 22.9009C22.263 23.3395 22.5 23.9343 22.5 24.5545C22.5 25.1747 22.263 25.7695 21.841 26.208C21.419 26.6466 20.8467 26.8929 20.25 26.8929Z" fill="white"/>
</symbol>
<symbol id="extra-info" width="27" height="27" viewBox="0 0 27 27" fill="none" xmlns="http://www.w3.org/2000/svg">
<path d="M22.5 24.75H4.5C4.20163 24.75 3.91548 24.6315 3.7045 24.4205C3.49353 24.2095 3.375 23.9234 3.375 23.625V3.375C3.375 3.07663 3.49353 2.79048 3.7045 2.5795C3.91548 2.36853 4.20163 2.25 4.5 2.25H22.5C22.7984 2.25 23.0845 2.36853 23.2955 2.5795C23.5065 2.79048 23.625 3.07663 23.625 3.375V23.625C23.625 23.9234 23.5065 24.2095 23.2955 24.4205C23.0845 24.6315 22.7984 24.75 22.5 24.75ZM21.375 22.5V4.5H5.625V22.5H21.375ZM9 7.875H18V10.125H9V7.875ZM9 12.375H18V14.625H9V12.375ZM9 16.875H14.625V19.125H9V16.875Z" fill="#5A5A5A"/>
</symbol>
<symbol id="confirm-order" width="30" height="30" viewBox="0 0 30 30" fill="none" xmlns="http://www.w3.org/2000/svg">
<path d="M14.5025 17.1999L16.2675 18.9649L26.85 8.38238L28.6175 10.1499L16.2675 22.4999L8.3125 14.5449L10.08 12.7774L12.7362 15.4336L14.5025 17.1986V17.1999ZM14.505 13.6649L20.695 7.47363L22.4575 9.23613L16.2675 15.4274L14.505 13.6649ZM10.9713 20.7336L9.205 22.4999L1.25 14.5449L3.0175 12.7774L4.78375 14.5436L4.7825 14.5449L10.9713 20.7336Z" fill="#5A5A5A"/>
</symbol>


<symbol id="profileIcon" width="20" height="20" viewBox="0 0 20 20" fill="none" xmlns="http://www.w3.org/2000/svg">
<path d="M16.6663 17.5V15.8333C16.6663 14.9493 16.3152 14.1014 15.69 13.4763C15.0649 12.8512 14.2171 12.5 13.333 12.5H6.66634C5.78229 12.5 4.93444 12.8512 4.30932 13.4763C3.6842 14.1014 3.33301 14.9493 3.33301 15.8333V17.5"  stroke-width="1.66667" stroke-linecap="round" stroke-linejoin="round"/>
<path d="M10.0003 9.16667C11.8413 9.16667 13.3337 7.67428 13.3337 5.83333C13.3337 3.99238 11.8413 2.5 10.0003 2.5C8.15938 2.5 6.66699 3.99238 6.66699 5.83333C6.66699 7.67428 8.15938 9.16667 10.0003 9.16667Z"  stroke-width="1.66667" stroke-linecap="round" stroke-linejoin="round"/>
</symbol>
<symbol id="myOrdersSvg" width="12" height="15" viewBox="0 0 12 15"  xmlns="http://www.w3.org/2000/svg">
<path d="M10.6875 3.5625H8.55V2.85C8.55 2.09413 8.24973 1.36922 7.71525 0.834746C7.18078 0.300267 6.45587 0 5.7 0C4.94413 0 4.21922 0.300267 3.68475 0.834746C3.15027 1.36922 2.85 2.09413 2.85 2.85V3.5625H0.7125C0.523533 3.5625 0.342306 3.63757 0.208687 3.77119C0.0750669 3.90481 0 4.08603 0 4.275V12.1125C0 12.6794 0.2252 13.2231 0.626059 13.6239C1.02692 14.0248 1.5706 14.25 2.1375 14.25H9.2625C9.8294 14.25 10.3731 14.0248 10.7739 13.6239C11.1748 13.2231 11.4 12.6794 11.4 12.1125V4.275C11.4 4.08603 11.3249 3.90481 11.1913 3.77119C11.0577 3.63757 10.8765 3.5625 10.6875 3.5625ZM4.275 2.85C4.275 2.47207 4.42513 2.10961 4.69237 1.84237C4.95961 1.57513 5.32207 1.425 5.7 1.425C6.07793 1.425 6.44039 1.57513 6.70763 1.84237C6.97487 2.10961 7.125 2.47207 7.125 2.85V3.5625H4.275V2.85ZM9.975 12.1125C9.975 12.3015 9.89993 12.4827 9.76631 12.6163C9.63269 12.7499 9.45147 12.825 9.2625 12.825H2.1375C1.94853 12.825 1.76731 12.7499 1.63369 12.6163C1.50007 12.4827 1.425 12.3015 1.425 12.1125V4.9875H2.85V5.7C2.85 5.88897 2.92507 6.07019 3.05869 6.20381C3.19231 6.33743 3.37353 6.4125 3.5625 6.4125C3.75147 6.4125 3.93269 6.33743 4.06631 6.20381C4.19993 6.07019 4.275 5.88897 4.275 5.7V4.9875H7.125V5.7C7.125 5.88897 7.20007 6.07019 7.33369 6.20381C7.46731 6.33743 7.64853 6.4125 7.8375 6.4125C8.02647 6.4125 8.20769 6.33743 8.34131 6.20381C8.47493 6.07019 8.55 5.88897 8.55 5.7V4.9875H9.975V12.1125Z" />
</symbol>


<symbol id="changePasswordSvg" width="18" height="18" viewBox="0 0 18 18"  xmlns="http://www.w3.org/2000/svg">
<path d="M9 9.75C8.80109 9.75 8.61032 9.82902 8.46967 9.96967C8.32902 10.1103 8.25 10.3011 8.25 10.5V12.75C8.25 12.9489 8.32902 13.1397 8.46967 13.2803C8.61032 13.421 8.80109 13.5 9 13.5C9.19891 13.5 9.38968 13.421 9.53033 13.2803C9.67098 13.1397 9.75 12.9489 9.75 12.75V10.5C9.75 10.3011 9.67098 10.1103 9.53033 9.96967C9.38968 9.82902 9.19891 9.75 9 9.75ZM12.75 6.75V5.25C12.75 4.25544 12.3549 3.30161 11.6517 2.59835C10.9484 1.89509 9.99456 1.5 9 1.5C8.00544 1.5 7.05161 1.89509 6.34835 2.59835C5.64509 3.30161 5.25 4.25544 5.25 5.25V6.75C4.65326 6.75 4.08097 6.98705 3.65901 7.40901C3.23705 7.83097 3 8.40326 3 9V14.25C3 14.8467 3.23705 15.419 3.65901 15.841C4.08097 16.2629 4.65326 16.5 5.25 16.5H12.75C13.3467 16.5 13.919 16.2629 14.341 15.841C14.7629 15.419 15 14.8467 15 14.25V9C15 8.40326 14.7629 7.83097 14.341 7.40901C13.919 6.98705 13.3467 6.75 12.75 6.75ZM6.75 5.25C6.75 4.65326 6.98705 4.08097 7.40901 3.65901C7.83097 3.23705 8.40326 3 9 3C9.59674 3 10.169 3.23705 10.591 3.65901C11.0129 4.08097 11.25 4.65326 11.25 5.25V6.75H6.75V5.25ZM13.5 14.25C13.5 14.4489 13.421 14.6397 13.2803 14.7803C13.1397 14.921 12.9489 15 12.75 15H5.25C5.05109 15 4.86032 14.921 4.71967 14.7803C4.57902 14.6397 4.5 14.4489 4.5 14.25V9C4.5 8.80109 4.57902 8.61032 4.71967 8.46967C4.86032 8.32902 5.05109 8.25 5.25 8.25H12.75C12.9489 8.25 13.1397 8.32902 13.2803 8.46967C13.421 8.61032 13.5 8.80109 13.5 9V14.25Z" />
</symbol>


<symbol id="logOutSvg" width="15" height="15" viewBox="0 0 15 15"  xmlns="http://www.w3.org/2000/svg">
<path d="M3.125 13.75C2.95924 13.75 2.80027 13.6842 2.68306 13.5669C2.56585 13.4497 2.5 13.2908 2.5 13.125V1.875C2.5 1.70924 2.56585 1.55027 2.68306 1.43306C2.80027 1.31585 2.95924 1.25 3.125 1.25H11.875C12.0408 1.25 12.1997 1.31585 12.3169 1.43306C12.4342 1.55027 12.5 1.70924 12.5 1.875V3.75H11.25V2.5H3.75V12.5H11.25V11.25H12.5V13.125C12.5 13.2908 12.4342 13.4497 12.3169 13.5669C12.1997 13.6842 12.0408 13.75 11.875 13.75H3.125ZM11.25 10V8.125H6.875V6.875H11.25V5L14.375 7.5L11.25 10Z"/>
</symbol>


<symbol id="earth" width="20" height="20" viewBox="0 0 20 20" fill="none" xmlns="http://www.w3.org/2000/svg">
<path d="M9.99984 18.3337C5.39734 18.3337 1.6665 14.6028 1.6665 10.0003C1.6665 5.39783 5.39734 1.66699 9.99984 1.66699C14.6023 1.66699 18.3332 5.39783 18.3332 10.0003C18.3332 14.6028 14.6023 18.3337 9.99984 18.3337ZM15.2957 13.2937V13.2062C15.2957 12.4378 15.2957 12.087 14.7523 11.7762C14.5777 11.6772 14.3983 11.5868 14.2148 11.5053C13.909 11.3662 13.7065 11.2753 13.4332 10.8753C13.4005 10.8278 13.3683 10.78 13.3365 10.732C13.049 10.2945 12.8415 9.97949 12.0515 10.1045C10.4973 10.3512 10.3823 10.6245 10.314 11.0862L10.3032 11.162C10.2023 11.837 10.184 12.0637 10.4657 12.3595C11.5198 13.4653 12.1515 14.2628 12.3432 14.7295C12.4365 14.957 12.6765 15.6462 12.5115 16.3278C13.523 15.9249 14.4234 15.2857 15.1373 14.4637C15.229 14.152 15.2957 13.7637 15.2957 13.2937ZM9.99984 3.19449C8.069 3.19449 6.32484 3.99949 5.0865 5.29116C5.234 5.39366 5.36234 5.53783 5.45067 5.73616C5.62067 6.11699 5.62067 6.50949 5.62067 6.85699C5.62067 7.13033 5.62067 7.39033 5.70817 7.57783C5.82817 7.83449 6.3465 7.94449 6.804 8.03949C6.96817 8.07449 7.1365 8.10949 7.28984 8.15199C7.7115 8.26866 8.03817 8.64783 8.299 8.95199C8.40734 9.07783 8.56817 9.26366 8.649 9.31033C8.69067 9.28033 8.82484 9.13449 8.89067 8.89533C8.94234 8.71199 8.92734 8.55033 8.85317 8.46199C8.3865 7.91199 8.41234 6.85366 8.5565 6.46283C8.78317 5.84699 9.4915 5.89283 10.0098 5.92616C10.2032 5.93866 10.3848 5.95116 10.5215 5.93366C11.0398 5.86866 11.1998 5.07949 11.3123 4.92533C11.5557 4.59199 12.3007 4.08949 12.7623 3.77949C11.8928 3.39282 10.9515 3.1935 9.99984 3.19449Z" fill="#B5B5B5" fill-opacity="0.53"/>
</symbol>

<symbol id="phoneData" width="25" height="25" viewBox="0 0 25 25" fill="none" xmlns="http://www.w3.org/2000/svg">
<path d="M16.8204 4.20277L20.1391 4.44005C20.3768 4.45693 20.5992 4.56332 20.7614 4.73774C20.9237 4.91217 21.0137 5.14165 21.0134 5.37988C21.0123 5.79204 21.0033 6.12818 20.9848 6.38722C20.3918 14.6813 13.1882 20.9235 4.89421 20.3305C4.63516 20.312 4.30111 20.2739 3.89304 20.2155C3.65719 20.1819 3.44285 20.0602 3.29329 19.8747C3.14372 19.6893 3.07005 19.454 3.08715 19.2164L3.32442 15.8977C3.33263 15.7813 3.38382 15.672 3.46805 15.5912C3.55227 15.5105 3.66353 15.4638 3.78019 15.4605C3.9976 15.4543 4.17077 15.4469 4.30257 15.4375C5.61762 15.344 6.91097 15.0523 8.1388 14.5722C8.33289 14.4964 8.55305 14.5706 8.6611 14.7482L9.96355 16.8771C12.9376 15.845 15.4016 13.7098 16.8463 10.9128L14.928 9.3229C14.8496 9.25792 14.7965 9.16749 14.778 9.06739C14.7595 8.96728 14.7767 8.86384 14.8266 8.77511C15.4754 7.62814 15.9472 6.3897 16.226 5.10174C16.2541 4.97262 16.287 4.80234 16.3229 4.58983C16.3431 4.47501 16.4051 4.37175 16.497 4.30007C16.5889 4.22838 16.7042 4.19338 16.8205 4.20183L16.8204 4.20277Z" fill="#B5B5B5" fill-opacity="0.53"/>
</symbol>
<symbol id="smsData" width="20" height="20" viewBox="0 0 20 20" fill="none" xmlns="http://www.w3.org/2000/svg">
<path d="M2.49984 2.5H17.4998C17.7209 2.5 17.9328 2.5878 18.0891 2.74408C18.2454 2.90036 18.3332 3.11232 18.3332 3.33333V16.6667C18.3332 16.8877 18.2454 17.0996 18.0891 17.2559C17.9328 17.4122 17.7209 17.5 17.4998 17.5H2.49984C2.27882 17.5 2.06686 17.4122 1.91058 17.2559C1.7543 17.0996 1.6665 16.8877 1.6665 16.6667V3.33333C1.6665 3.11232 1.7543 2.90036 1.91058 2.74408C2.06686 2.5878 2.27882 2.5 2.49984 2.5ZM10.0498 9.73583L4.7065 5.19833L3.62734 6.46833L10.0607 11.9308L16.3782 6.46417L15.2882 5.20333L10.0507 9.73583H10.0498Z" fill="#B5B5B5" fill-opacity="0.53"/>
</symbol>

<symbol id="myOrdersDara" width="19" height="21" viewBox="0 0 19 21" fill="none" xmlns="http://www.w3.org/2000/svg">
<path d="M12.1649 3.00781L14.707 7.87456H17.4168V9.62456H16.493L15.8937 17.5722C15.8772 17.7908 15.787 17.9947 15.6409 18.1433C15.4949 18.2919 15.3037 18.3744 15.1052 18.3746H3.89516C3.69665 18.3744 3.50542 18.2919 3.35938 18.1433C3.21334 17.9947 3.12314 17.7908 3.10666 17.5722L2.50658 9.62456H1.5835V7.87456H4.29258L6.83541 3.00781L8.20658 3.88281L6.12133 7.87456H12.8782L10.7937 3.88281L12.1649 3.00781ZM10.2918 11.3746H8.7085V14.8746H10.2918V11.3746ZM7.12516 11.3746H5.54183V14.8746H7.12516V11.3746ZM13.4585 11.3746H11.8752V14.8746H13.4585V11.3746Z" fill="#B5B5B5" fill-opacity="0.53"/>
</symbol>
<symbol id="whatsapp" width="20" height="20" viewBox="0 0 20 20" fill="none" xmlns="http://www.w3.org/2000/svg">
<path d="M5.57649 16.0226L6.23921 16.4098C7.35682 17.0616 8.62794 17.4038 9.92173 17.4011C11.3701 17.4011 12.7859 16.9716 13.9901 16.167C15.1944 15.3623 16.133 14.2187 16.6872 12.8806C17.2415 11.5425 17.3865 10.0701 17.1039 8.64958C16.8214 7.22907 16.1239 5.92425 15.0998 4.90012C14.0757 3.87599 12.7709 3.17855 11.3504 2.896C9.92985 2.61344 8.45745 2.75846 7.11937 3.31271C5.78128 3.86697 4.63759 4.80556 3.83294 6.00981C3.02829 7.21406 2.59881 8.62987 2.59881 10.0782C2.59881 11.3927 2.9439 12.6531 3.59106 13.7616L3.97735 14.4244L3.37961 16.6221L5.57649 16.0226ZM0.77174 19.2319L2.00931 14.6843C1.19385 13.2864 0.76542 11.6966 0.768079 10.0782C0.768079 5.02265 4.86617 0.924561 9.92173 0.924561C14.9773 0.924561 19.0754 5.02265 19.0754 10.0782C19.0754 15.1338 14.9773 19.2319 9.92173 19.2319C8.30407 19.2345 6.71489 18.8064 5.31744 17.9915L0.77174 19.2319ZM6.61817 5.78332C6.74083 5.77416 6.86441 5.77416 6.98707 5.77965C7.0365 5.78332 7.08593 5.78881 7.13536 5.7943C7.2809 5.81078 7.44109 5.89957 7.49509 6.02223C7.76787 6.64101 8.03333 7.26438 8.28963 7.88957C8.34638 8.02871 8.31251 8.2072 8.2045 8.38112C8.13021 8.49873 8.04986 8.61238 7.96376 8.72164C7.86032 8.85436 7.63789 9.09785 7.63789 9.09785C7.63789 9.09785 7.54727 9.20586 7.58205 9.34042C7.59487 9.39168 7.63697 9.46583 7.67542 9.52807L7.72943 9.61503C7.96376 10.0059 8.27865 10.4022 8.6631 10.7757C8.77294 10.8819 8.88004 10.9908 8.99538 11.0924C9.42377 11.4705 9.90891 11.779 10.4325 12.0078L10.4371 12.0096C10.5149 12.0435 10.5542 12.0618 10.6677 12.1103C10.7245 12.1341 10.7831 12.1552 10.8426 12.1707C10.9041 12.1864 10.9688 12.1834 11.0286 12.1623C11.0884 12.1411 11.1406 12.1026 11.1785 12.0517C11.8412 11.249 11.9017 11.1968 11.9072 11.1968V11.1986C11.9532 11.1557 12.0079 11.1231 12.0676 11.103C12.1272 11.083 12.1905 11.0759 12.2532 11.0824C12.3081 11.086 12.3639 11.0961 12.4152 11.119C12.9012 11.3414 13.6967 11.6883 13.6967 11.6883L14.2294 11.9272C14.3191 11.9703 14.4006 12.0719 14.4033 12.1698C14.407 12.2311 14.4125 12.33 14.3914 12.5112C14.3622 12.7483 14.2908 13.033 14.2194 13.1822C14.1705 13.284 14.1056 13.3774 14.0271 13.4586C13.9348 13.5556 13.8337 13.6439 13.7251 13.7223C13.6875 13.7505 13.6494 13.778 13.6106 13.8047C13.4968 13.8769 13.3798 13.9441 13.2601 14.006C13.0244 14.1312 12.7641 14.2031 12.4976 14.2166C12.3282 14.2257 12.1589 14.2385 11.9886 14.2294C11.9813 14.2294 11.4687 14.1497 11.4687 14.1497C10.1673 13.8074 8.96369 13.1662 7.95369 12.2769C7.74682 12.0948 7.55551 11.8989 7.35962 11.7039C6.54494 10.8938 5.92982 10.0196 5.55635 9.19396C5.36519 8.78872 5.26194 8.34762 5.25337 7.89964C5.24959 7.34388 5.43126 6.80273 5.76963 6.36183C5.83645 6.27578 5.89961 6.18608 6.00854 6.08264C6.12479 5.9728 6.19802 5.91421 6.27766 5.87394C6.38354 5.82087 6.49905 5.78974 6.61726 5.7824L6.61817 5.78332Z" fill="#D2973D"/>
</symbol>
<symbol id="searchSvg" width="20" height="17" viewBox="0 0 20 17" fill="none" xmlns="http://www.w3.org/2000/svg">
<path d="M10.7705 13.3204C7.40095 13.3204 4.6694 10.8724 4.6694 7.8526C4.6694 4.8328 7.40095 2.38477 10.7705 2.38477C14.14 2.38477 16.8716 4.8328 16.8716 7.8526C16.8716 10.8724 14.14 13.3204 10.7705 13.3204Z" stroke="#ACBCCB" stroke-width="1.92982" stroke-linecap="round" stroke-linejoin="round"/>
<path d="M3.14444 14.687L6.46191 11.7139" stroke="#ACBCCB" stroke-width="1.92982" stroke-linecap="round" stroke-linejoin="round"/>
</symbol>

<symbol id="searchFillter" width="52" height="52" viewBox="0 0 52 52" fill="none" xmlns="http://www.w3.org/2000/svg">
<path fill-rule="evenodd" clip-rule="evenodd" d="M52 2.89474C52 1.29602 50.704 0 49.1053 0H2.89473C1.29602 0 0 1.29602 0 2.89474V49.1053C0 50.704 1.29602 52 2.89474 52H49.1053C50.704 52 52 50.704 52 49.1053V2.89474Z" fill="#B79763"/>
<path d="M35.9168 17.125H15.0835L23.4168 26.9792V33.7917L27.5835 35.875V26.9792L35.9168 17.125Z" stroke="white" stroke-width="2" stroke-linecap="round" stroke-linejoin="round"/>
</symbol>


<symbol id="reviewOrded" width="27" height="29" viewBox="0 0 27 29" fill="none" xmlns="http://www.w3.org/2000/svg">
<path d="M4.5 18.7082V4.67735H2.25V2.33887H5.625C5.92337 2.33887 6.20952 2.46205 6.4205 2.68133C6.63147 2.90061 6.75 3.19801 6.75 3.50811V17.539H20.7428L22.9928 8.18507H9V5.84659H24.435C24.606 5.8466 24.7748 5.88712 24.9284 5.96508C25.0821 6.04304 25.2167 6.15638 25.3219 6.2965C25.4271 6.43662 25.5002 6.59982 25.5356 6.7737C25.571 6.94757 25.5678 7.12755 25.5263 7.29996L22.7138 18.9924C22.6528 19.2452 22.5123 19.4697 22.3146 19.63C22.1169 19.7904 21.8733 19.8775 21.6225 19.8775H5.625C5.32663 19.8775 5.04048 19.7543 4.82951 19.535C4.61853 19.3158 4.5 19.0184 4.5 18.7082ZM6.75 26.8929C6.15326 26.8929 5.58097 26.6466 5.15901 26.208C4.73705 25.7695 4.5 25.1747 4.5 24.5545C4.5 23.9343 4.73705 23.3395 5.15901 22.9009C5.58097 22.4623 6.15326 22.216 6.75 22.216C7.34674 22.216 7.91904 22.4623 8.34099 22.9009C8.76295 23.3395 9 23.9343 9 24.5545C9 25.1747 8.76295 25.7695 8.34099 26.208C7.91904 26.6466 7.34674 26.8929 6.75 26.8929ZM20.25 26.8929C19.6533 26.8929 19.081 26.6466 18.659 26.208C18.2371 25.7695 18 25.1747 18 24.5545C18 23.9343 18.2371 23.3395 18.659 22.9009C19.081 22.4623 19.6533 22.216 20.25 22.216C20.8467 22.216 21.419 22.4623 21.841 22.9009C22.263 23.3395 22.5 23.9343 22.5 24.5545C22.5 25.1747 22.263 25.7695 21.841 26.208C21.419 26.6466 20.8467 26.8929 20.25 26.8929Z" fill="white"/>
</symbol>

<symbol id="reviewLocation" width="21" height="24" viewBox="0 0 21 24"  xmlns="http://www.w3.org/2000/svg">
<path d="M20.3454 8.98782C20.1852 7.32068 19.596 5.72343 18.6352 4.35161C17.6744 2.9798 16.3747 1.88016 14.8628 1.15979C13.3508 0.439417 11.678 0.122856 10.0074 0.240933C8.33672 0.35901 6.72512 0.9077 5.32949 1.83357C4.13049 2.63531 3.12394 3.69265 2.38215 4.92963C1.64036 6.16661 1.18173 7.55252 1.03923 8.98782C0.899431 10.4137 1.07879 11.8528 1.56429 13.2008C2.0498 14.5488 2.82927 15.7717 3.84615 16.781L9.8936 22.8399C9.99967 22.9468 10.1259 23.0317 10.2649 23.0896C10.404 23.1476 10.5531 23.1774 10.7037 23.1774C10.8544 23.1774 11.0035 23.1476 11.1425 23.0896C11.2816 23.0317 11.4078 22.9468 11.5139 22.8399L17.5385 16.781C18.5554 15.7717 19.3348 14.5488 19.8203 13.2008C20.3058 11.8528 20.4852 10.4137 20.3454 8.98782V8.98782ZM15.941 15.1722L10.6923 20.4209L5.44359 15.1722C4.67008 14.3986 4.07756 13.4633 3.70862 12.4334C3.33969 11.4036 3.20351 10.3048 3.30987 9.21602C3.41692 8.11048 3.76829 7.04255 4.33859 6.08943C4.90888 5.13631 5.68384 4.32182 6.60744 3.70486C7.81801 2.9007 9.239 2.47175 10.6923 2.47175C12.1456 2.47175 13.5666 2.9007 14.7772 3.70486C15.698 4.31944 16.4712 5.13032 17.0414 6.07927C17.6116 7.02821 17.9645 8.09165 18.0748 9.1932C18.1846 10.2857 18.0501 11.3889 17.6811 12.4229C17.3121 13.457 16.7177 14.3961 15.941 15.1722V15.1722ZM10.6923 4.84589C9.67678 4.84589 8.68406 5.14703 7.83967 5.71123C6.99529 6.27543 6.33717 7.07734 5.94854 8.01557C5.55992 8.9538 5.45823 9.98621 5.65635 10.9822C5.85448 11.9782 6.3435 12.8931 7.06159 13.6112C7.77968 14.3293 8.69458 14.8184 9.6906 15.0165C10.6866 15.2146 11.719 15.1129 12.6573 14.7243C13.5955 14.3357 14.3974 13.6775 14.9616 12.8332C15.5258 11.9888 15.8269 10.996 15.8269 9.98051C15.8239 8.61965 15.282 7.31539 14.3197 6.35311C13.3574 5.39084 12.0532 4.8489 10.6923 4.84589V4.84589ZM10.6923 12.8331C10.1281 12.8331 9.57662 12.6658 9.10752 12.3523C8.63841 12.0389 8.27279 11.5934 8.05689 11.0721C7.84098 10.5509 7.78449 9.97734 7.89456 9.424C8.00463 8.87066 8.27631 8.36238 8.67525 7.96344C9.07419 7.5645 9.58246 7.29282 10.1358 7.18275C10.6892 7.07269 11.2627 7.12918 11.7839 7.34508C12.3052 7.56098 12.7507 7.9266 13.0641 8.39571C13.3776 8.86481 13.5449 9.41632 13.5449 9.98051C13.5449 10.7371 13.2443 11.4626 12.7094 11.9976C12.1744 12.5325 11.4489 12.8331 10.6923 12.8331V12.8331Z" />
</symbol>


<symbol id="extraInfo" width="27" height="27" viewBox="0 0 27 27"  xmlns="http://www.w3.org/2000/svg">
<path d="M22.5 24.75H4.5C4.20163 24.75 3.91548 24.6315 3.7045 24.4205C3.49353 24.2095 3.375 23.9234 3.375 23.625V3.375C3.375 3.07663 3.49353 2.79048 3.7045 2.5795C3.91548 2.36853 4.20163 2.25 4.5 2.25H22.5C22.7984 2.25 23.0845 2.36853 23.2955 2.5795C23.5065 2.79048 23.625 3.07663 23.625 3.375V23.625C23.625 23.9234 23.5065 24.2095 23.2955 24.4205C23.0845 24.6315 22.7984 24.75 22.5 24.75ZM21.375 22.5V4.5H5.625V22.5H21.375ZM9 7.875H18V10.125H9V7.875ZM9 12.375H18V14.625H9V12.375ZM9 16.875H14.625V19.125H9V16.875Z" />
</symbol>


<symbol id="doneOrder" width="30" height="30" viewBox="0 0 30 30"  xmlns="http://www.w3.org/2000/svg">
<path d="M14.5025 17.1999L16.2675 18.9649L26.85 8.38238L28.6175 10.1499L16.2675 22.4999L8.3125 14.5449L10.08 12.7774L12.7362 15.4336L14.5025 17.1986V17.1999ZM14.505 13.6649L20.695 7.47363L22.4575 9.23613L16.2675 15.4274L14.505 13.6649ZM10.9713 20.7336L9.205 22.4999L1.25 14.5449L3.0175 12.7774L4.78375 14.5436L4.7825 14.5449L10.9713 20.7336Z"/>
</symbol>



<symbol id="deletFromReview" width="106" height="40" viewBox="0 0 106 40" fill="none" xmlns="http://www.w3.org/2000/svg">
<rect x="0.5" y="0.5" width="105" height="39" rx="2.5" stroke="#D33041"/>
<path d="M68 16H80V25.75C80 25.9489 79.921 26.1397 79.7803 26.2803C79.6397 26.421 79.4489 26.5 79.25 26.5H68.75C68.5511 26.5 68.3603 26.421 68.2197 26.2803C68.079 26.1397 68 25.9489 68 25.75V16ZM69.5 17.5V25H78.5V17.5H69.5ZM71.75 19H73.25V23.5H71.75V19ZM74.75 19H76.25V23.5H74.75V19ZM70.25 13.75V12.25C70.25 12.0511 70.329 11.8603 70.4697 11.7197C70.6103 11.579 70.8011 11.5 71 11.5H77C77.1989 11.5 77.3897 11.579 77.5303 11.7197C77.671 11.8603 77.75 12.0511 77.75 12.25V13.75H81.5V15.25H66.5V13.75H70.25ZM71.75 13V13.75H76.25V13H71.75Z" fill="#D33041"/>
<path d="M38.175 14.8C38.375 14.8 38.545 14.875 38.685 15.025C38.835 15.165 38.91 15.335 38.91 15.535C38.91 15.745 38.835 15.925 38.685 16.075C38.545 16.215 38.375 16.285 38.175 16.285C37.965 16.285 37.785 16.215 37.635 16.075C37.495 15.925 37.425 15.745 37.425 15.535C37.425 15.335 37.495 15.165 37.635 15.025C37.785 14.875 37.965 14.8 38.175 14.8ZM35.685 23.935C34.985 23.275 34.635 22.425 34.635 21.385C34.635 20.205 35.01 19.305 35.76 18.685C36.39 18.175 37.195 17.92 38.175 17.92C39.035 17.92 39.715 18.16 40.215 18.64C40.735 19.12 41 19.79 41.01 20.65V23.62C41.01 24.02 40.86 24.36 40.56 24.64C40.3 24.88 40 25 39.66 25H30.39C29.89 25 29.435 24.85 29.025 24.55C28.365 24.06 28.035 23.385 28.035 22.525V19.705L28.68 19.18H29.31V22.525C29.31 22.945 29.47 23.295 29.79 23.575C30.05 23.815 30.37 23.935 30.75 23.935H35.685ZM39.735 20.65C39.735 20.13 39.595 19.725 39.315 19.435C39.035 19.145 38.655 19 38.175 19C37.455 19 36.9 19.215 36.51 19.645C36.12 20.065 35.925 20.66 35.925 21.43C35.925 22.2 36.18 22.82 36.69 23.29C37.13 23.72 37.69 23.935 38.37 23.935H39.165C39.545 23.935 39.735 23.745 39.735 23.365V20.65ZM45.0039 14.8C45.2039 14.8 45.3739 14.875 45.5139 15.025C45.6639 15.165 45.7389 15.335 45.7389 15.535C45.7389 15.745 45.6639 15.925 45.5139 16.075C45.3739 16.215 45.2039 16.285 45.0039 16.285C44.8039 16.285 44.6289 16.215 44.4789 16.075C44.3389 15.925 44.2689 15.745 44.2689 15.535C44.2689 15.335 44.3389 15.165 44.4789 15.025C44.6289 14.875 44.8039 14.8 45.0039 14.8ZM44.2389 18.01C44.5989 17.95 44.9839 17.92 45.3939 17.92C46.5039 17.92 47.3989 18.255 48.0789 18.925C48.6889 19.545 48.9939 20.33 48.9939 21.28V23.575C48.9939 23.705 48.9839 23.825 48.9639 23.935H49.3839V25H49.1589L48.7389 24.475H48.6939C48.6139 24.575 48.5239 24.665 48.4239 24.745C48.1839 24.915 47.9239 25 47.6439 25H42.7239V23.935H47.1639C47.5339 23.935 47.7189 23.745 47.7189 23.365V21.46C47.7189 20.75 47.5039 20.16 47.0739 19.69C46.6139 19.21 45.9039 18.965 44.9439 18.955C44.6639 18.955 44.4289 18.975 44.2389 19.015V18.01ZM51.5516 18.355C52.4716 18.065 53.3316 17.92 54.1316 17.92C55.3716 17.92 56.3166 18.305 56.9666 19.075C57.5266 19.735 57.8066 20.6 57.8066 21.67V23.575C57.8066 23.915 57.7016 24.215 57.4916 24.475C57.2316 24.825 56.8866 25 56.4566 25H49.5566V23.935H55.9616C56.3416 23.935 56.5316 23.745 56.5316 23.365V21.625C56.5316 20.845 56.3266 20.23 55.9166 19.78C55.4666 19.28 54.8116 19.03 53.9516 19.03C53.4316 19.03 52.6316 19.14 51.5516 19.36V18.355Z" fill="#D33041"/>
</symbol>

<symbol id="addFileSvg" width="21" height="21" viewBox="0 0 21 21" fill="none" xmlns="http://www.w3.org/2000/svg">
<path d="M2.625 16.625H18.375V18.375H2.625V16.625ZM11.375 5.0995V14.875H9.625V5.0995L4.31287 10.4125L3.07563 9.17525L10.5 1.75L17.9244 9.17437L16.6871 10.4116L11.375 5.10125V5.0995Z" fill="#696969"/>
</symbol>




</svg>




